<?xml version="1.0" encoding="utf-8"?>
<!-- Generator: Adobe Illustrator 23.0.1, SVG Export Plug-In . SVG Version: 6.00 Build 0)  -->
<svg version="1.1" id="Layer_1" xmlns="http://www.w3.org/2000/svg" xmlns:xlink="http://www.w3.org/1999/xlink" x="0px" y="0px"
	 viewBox="0 0 128 128" style="enable-background:new 0 0 128 128;" xml:space="preserve">
<style type="text/css">
	.st0{fill:#3E5C9A;}
	.st1{fill:#FFFFFF;}
</style>
<g id="XMLID_1419_">
	<path id="XMLID_1421_" class="st0" d="M64,128L64,128C28.65,128,0,99.35,0,64l0,0C0,28.65,28.65,0,64,0l0,0c35.35,0,64,28.65,64,64
		l0,0C128,99.35,99.35,128,64,128z"/>
	<path id="XMLID_1420_" class="st1" d="M54.25,102.68h15.58V63.67H80.7l1.16-13.06H69.83c0,0,0-4.88,0-7.44c0-3.08,0.62-4.3,3.6-4.3
		c2.4,0,8.43,0,8.43,0V25.32c0,0-8.89,0-10.79,0c-11.59,0-16.82,5.11-16.82,14.88c0,8.51,0,10.41,0,10.41h-8.1v13.23h8.1V102.68z"/>
</g>
</svg>
